<svg viewBox="0 0 24 24" fill="none"><path d="M4,5L16.176,5L19,7.824L19,20C19,20.552 18.552,21 18,21L4,21C3.448,21 3,20.552 3,20L3,6C3,5.448 3.448,5 4,5Z" fill="rgba(0,179,192,0.35)"/><path d="M20,13L20,20C20,21.105 19.105,22 18,22L4,22C2.895,22 2,21.105 2,20L2,6C2,4.895 2.895,4 4,4L11,4" stroke="currentColor" stroke-width="2"/><polygon points="16.253 4.916 7 14.169 7 16.997 9.828 16.997 19.081 7.744" stroke="currentColor" stroke-width="2"/><path d="M19.431,1.738L18.728,2.441L21.556,5.269L22.263,4.563C22.458,4.367 22.458,4.051 22.263,3.855L20.138,1.737C19.942,1.542 19.626,1.543 19.431,1.738Z" stroke="currentColor" stroke-width="2"/></svg>