<svg viewBox="-1 -1 30 15" fill="none"><path d="M22.431852,0.947218678 L22.5643838,1.01524196 C23.1779904,1.3434023 23.6565628,1.82197473 23.9847232,2.43558126 C24.3623857,3.14174873 24.4999651,3.84022214 24.4999651,5.4141136 L24.4999651,7.5858864 C24.4999651,9.15977786 24.3623857,9.85825127 23.9847232,10.5644187 C23.6565628,11.1780253 23.1779904,11.6565977 22.5643838,11.9847581 C21.8582164,12.3624206 21.159743,12.5 19.5858515,12.5 L5.4141136,12.5 C3.84022214,12.5 3.14174873,12.3624206 2.43558126,11.9847581 C1.82197473,11.6565977 1.3434023,11.1780253 1.01524194,10.5644187 C0.637579442,9.85825127 0.5,9.15977786 0.5,7.5858864 L0.5,5.4141136 C0.5,3.84022214 0.637579442,3.14174873 1.01524194,2.43558126 C1.3434023,1.82197473 1.82197473,1.3434023 2.43558126,1.01524194 C3.14174873,0.637579442 3.84022214,0.5 5.4141136,0.5 L19.5858515,0.5 C21.0613747,0.5 21.7674876,0.620919432 22.431852,0.947218678 Z" stroke="var(--text)" opacity="0.35"/><path d="M26,4.66666667 L26,8.66666667 C26.80473,8.32789015 27.3280362,7.53979995 27.3280362,6.66666667 C27.3280362,5.79353339 26.80473,5.00544318 26,4.66666667" fill="var(--text)" fill-rule="nonzero" opacity="0.4"/><path d="M5.2048565,2 L19.7951142,2 C20.9095126,2 21.3136204,2.11603201 21.7210278,2.33391588 C22.1284352,2.55179975 22.4481709,2.87153546 22.6660548,3.27894287 C22.8839387,3.68635028 22.9999707,4.09045808 22.9999707,5.2048565 L22.9999707,7.7951435 C22.9999707,8.90954192 22.8839387,9.31364972 22.6660548,9.72105713 C22.4481709,10.1284645 22.1284352,10.4482003 21.7210278,10.6660841 C21.3136204,10.883968 20.9095126,11 19.7951142,11 L5.2048565,11 C4.09045808,11 3.68635028,10.883968 3.27894287,10.6660841 C2.87153546,10.4482003 2.55179975,10.1284645 2.33391588,9.72105713 C2.11603201,9.31364972 2,8.90954192 2,7.7951435 L2,5.2048565 C2,4.09045808 2.11603201,3.68635028 2.33391588,3.27894287 C2.55179975,2.87153546 2.87153546,2.55179975 3.27894287,2.33391588 C3.68635028,2.11603201 4.09045808,2 5.2048565,2 Z" fill="var(--text)" fill-rule="nonzero"/></svg>