<svg viewBox="17 7 21 13" fill="var(--text)" fill-rule="nonzero"><path d="M19.1543736,14.5 L20.2210403,14.5 C20.810144,14.5 21.2877069,15.0148725 21.2877069,15.65 L21.2877069,17.95 C21.2877069,18.5851275 20.810144,19.1 20.2210403,19.1 L19.1543736,19.1 C18.5652699,19.1 18.0877069,18.5851275 18.0877069,17.95 L18.0877069,15.65 C18.0877069,15.0148725 18.5652699,14.5 19.1543736,14.5 Z M24.4543736,12.1 L25.5210403,12.1 C26.110144,12.1 26.5877069,12.6223345 26.5877069,13.2666667 L26.5877069,17.9333333 C26.5877069,18.5776655 26.110144,19.1 25.5210403,19.1 L24.4543736,19.1 C23.8652699,19.1 23.3877069,18.5776655 23.3877069,17.9333333 L23.3877069,13.2666667 C23.3877069,12.6223345 23.8652699,12.1 24.4543736,12.1 Z M29.8543736,9.5 L30.9210403,9.5 C31.510144,9.5 31.9877069,10.015768 31.9877069,10.652 L31.9877069,17.948 C31.9877069,18.584232 31.510144,19.1 30.9210403,19.1 L29.8543736,19.1 C29.2652699,19.1 28.7877069,18.584232 28.7877069,17.948 L28.7877069,10.652 C28.7877069,10.015768 29.2652699,9.5 29.8543736,9.5 Z M36.2210403,7.1 C36.810144,7.1 37.2877069,7.60367966 37.2877069,8.225 L37.2877069,17.975 C37.2877069,18.5963203 36.810144,19.1 36.2210403,19.1 L35.1543736,19.1 C34.5652699,19.1 34.0877069,18.5963203 34.0877069,17.975 L34.0877069,8.225 C34.0877069,7.60367966 34.5652699,7.1 35.1543736,7.1 L36.2210403,7.1 Z"/></svg>