<svg viewBox="3 3 38 48" fill="currentColor" stroke="currentColor" stroke-width="4" style="display:block;transform:scaleY(-1)"><path fill-rule="nonzero" d="M20.173828125,27.9296875 C20.345703125,27.9296875 20.453125,27.97265625 20.560546875,28.080078125 L30.29296875,38.11328125 C30.658203125,38.5 30.744140625,38.671875 30.744140625,38.822265625 C30.744140625,39.015625 30.63671875,39.1875 30.29296875,39.53125 L20.58203125,49.54296875 C20.474609375,49.650390625 20.388671875,49.71484375 20.15234375,49.71484375 C19.80859375,49.71484375 19.63671875,49.478515625 19.63671875,49.220703125 C19.63671875,49.02734375 19.6796875,48.8984375 19.80859375,48.76953125 L28.7890625,39.57421875 C27.134765625,40.025390625 24.6640625,40.412109375 22.064453125,40.412109375 C11.837890625,40.412109375 3.845703125,32.484375 3.845703125,22.34375 C3.845703125,12.1171875 11.837890625,4.08203125 22.064453125,4.08203125 C32.26953125,4.08203125 40.26171875,12.1171875 40.26171875,22.34375 C40.26171875,22.64453125 40.046875,22.859375 39.74609375,22.859375 C39.423828125,22.859375 39.208984375,22.64453125 39.208984375,22.34375 C39.208984375,12.697265625 31.689453125,5.134765625 22.064453125,5.134765625 C12.41796875,5.134765625 4.8984375,12.697265625 4.8984375,22.34375 C4.8984375,31.904296875 12.41796875,39.359375 22.064453125,39.359375 C24.685546875,39.359375 27.37109375,39.037109375 29.240234375,38.478515625 L19.80859375,28.875 C19.6796875,28.74609375 19.63671875,28.6171875 19.63671875,28.423828125 C19.63671875,28.166015625 19.830078125,27.9296875 20.173828125,27.9296875 Z"/></svg>