<svg viewBox="43 6 20 14" fill="var(--text)" fill-rule="nonzero"><path d="M53.3591766,9.62060942 C55.8463341,9.62071261 58.2383855,10.5257199 60.0409295,12.1485798 C60.1766658,12.2738707 60.3936256,12.2722903 60.5273105,12.1450368 L61.8248254,10.9049672 C61.8925163,10.8404246 61.9302564,10.7529979 61.9297009,10.6620331 C61.929133,10.5710684 61.8903156,10.4840656 61.8218323,10.4202771 C57.0907317,6.12657428 49.6268732,6.12657428 44.8957725,10.4202771 C44.8272393,10.4840183 44.7883543,10.5709946 44.7877146,10.6619595 C44.7870904,10.7529244 44.8247636,10.8403777 44.8924053,10.9049672 L46.1902943,12.1450368 C46.323894,12.2724823 46.5410212,12.274064 46.6766754,12.1485798 C48.4794489,10.5256134 50.8717751,9.62060348 53.3591766,9.62060942 Z M53.3573913,13.7627299 C54.7147359,13.7626471 56.0236422,14.2649101 57.0297794,15.1719252 C57.1658642,15.3006513 57.3802334,15.2978605 57.5128905,15.1656358 L58.800196,13.8707595 C58.8679885,13.8028396 58.9056037,13.7107003 58.9046445,13.6149555 C58.9036481,13.5192108 58.8641589,13.4278519 58.7949932,13.3613182 C55.7311036,10.524005 50.9862803,10.524005 47.9223906,13.3613182 C47.8531819,13.4278511 47.8136952,13.5192558 47.812771,13.6150315 C47.8118787,13.7108071 47.8496249,13.8029377 47.9175595,13.8707595 L49.2044934,15.1656358 C49.3371505,15.2978605 49.5515196,15.3006513 49.6876045,15.1719252 C50.6930766,14.2655094 52.0009438,13.7632894 53.3573913,13.7627299 Z M55.7770809,16.7800753 C55.84438,16.7076346 55.881442,16.6079465 55.8795166,16.5045473 C55.8775912,16.4011481 55.8368491,16.3032027 55.7669094,16.2338361 C54.3767843,14.9442768 52.3408203,14.9442768 50.9506952,16.2338361 C50.880707,16.303147 50.8398982,16.4010615 50.837904,16.5044612 C50.8359098,16.6078609 50.8729071,16.7075806 50.9401604,16.7800753 L53.1172287,19.1893446 C53.181037,19.2601513 53.2680314,19.3 53.3588023,19.3 C53.4495732,19.3 53.5365676,19.2601513 53.6003759,19.1893446 L55.7770809,16.7800753 Z"/></svg>