<svg viewBox="0 0 24 24" fill="none" stroke="currentColor"><path d="M10.79,1C15.5258,1.4376 19.1036,5.4845 18.9576,10.2382C18.9466,10.5962 18.9147,10.949 18.8632,11.2952C18.2763,11.1034 17.6503,11 17,11C13.6863,11 11,13.6863 11,17L11.0005,18.9021C10.7494,18.931 10.4952,18.9497 10.2382,18.9576C5.4845,19.1036 1.4376,15.5258 1,10.79C3.7865,12.8496 7.6605,12.5607 10.1106,10.1106C12.5607,7.6605 12.8496,3.7865 10.79,1Z" stroke-width="2" fill="rgba(0,179,192,0.35)" stroke-linecap="round"/><path d="M23,21C23,19.6667 23,18.3333 23,17C23,13.6863 20.3137,11 17,11C13.6863,11 11,13.6863 11,17C11,18.3333 11,19.6667 11,21C11,22.1046 11.8954,23 13,23L21,23C22.1046,23 23,22.1046 23,21Z" stroke-width="2" fill="rgba(0,179,192,0.35)"/><circle cx="17" cy="17.5" r="1.5" fill="currentColor" stroke="none"/><line x1="22.5" y1="14.5" x2="17" y2="17.5" stroke-width="1.5"/></svg>